/* XPM */
static char *_9c7ac207ec646699419813ce40de5e7dse4nZ5qNB9FQ1b4[] = {
/* columns rows colors chars-per-pixel */
"100 100 3 1 ",
"  c #D88643",
". c #D4803C",
"X c #DD8D46",
/* pixels */
"                         XXX                                  XXX                                  X",
"X            .......             XXXX       X     XXX                 XXXX              ......      ",
"              .......             XXXX          X XXXX                 XXXX             .......     ",
"XXXX   ....     .......           XXXXXXX         XXXXXX               XXXXXXX   ....     .......   ",
"XXXX  .....       .....             XXXXX           XXXX         X XX    XXXXXX  .....      .....   ",
"XXXX    ...   .     ..      XXXX   X XXXX            XX     . ..          XXXX    ...   .     ...   ",
"             ...          XXXXXX                            .......                    ...          ",
"             ...         XXXXXXX               .           .......                      ..         X",
"..      XXXXXX       XXXXXXXX               .........    ........      .....      XXXXXX       XXXXX",
"..     XXXXXXXX       XXXXXX               ..........    .......       .....    X XXXXXXX       XXXX",
"..  XXXXXXX .          X X    ..         ..........         ..     ..  .....  XXXXXXX .           X ",
"..  XXXXX  ...                ..   X X    .........     X          ..  .....  XXXXXX ...            ",
".   XXXXX  ....          XX   .           ........            XX        ...   XXXXX  .....         X",
"           .....         XXX                          X       XXX                    .....         X",
"     X    ......        XXXX                         X       XXXX              X     .....         X",
"      ........        XXXX         X X                     XXXX         X X      .......        XXXX",
" X    ........       XXXX X         X                     XXXXX          X      ........       XXXXX",
"  .............     XXX            X       XXXXX         XXX            X    .............    XXX   ",
"  ..............   XXXX         X X       XXXXXXXX      XXXX       X XX     ..............   XXXX   ",
"  . ...........     XX   ..   .          XXXXXXX          X                 . ...........      X   .",
"      ........           ..   ..        XXXXXXX                  X              ........           .",
"      .......            ..   ..         XXXXX X                                 ......            .",
"....     .    XXXXXXX             .....             XXXXXX                .....     .    XXXXXX     ",
"....           XXXXXXX            .....            XXXXXXXX              .....          XXXXXXXX    ",
"....         XXXXXXX       ..........             XXXXXXX        ....  ........        XXXXXXX      ",
"....        XXXXXXX        ..........            XXXXXXXX       .....   ......        XXXXXXXX      ",
"..     . ..   XXXX     XX    ... ...        . ..   XXXX     XX    ...   . .. .   . ..   XXXX     XX ",
" X    .......         XXXX           X X   .......         XXXX            X X   .......         XXX",
"   X  .......         XXX X                 ......         XXXX                 .......          XXX",
"      ...       X     XXX                  ...             XXX                  ...       X    XXXX ",
"      ...            XXXX                  ...       X    XXXX                  ...        X    XXX ",
"....         XXXXX                .......         XXXXX       X        .......   .     XXXXX      X ",
"....       X XXXXXX           X   .......        XXXXXXX       X   X    ......        XXXXXXX       ",
"......   XXXXXXXXX   .     XXXXX    .......   XX  XXXXX   .     XXXXX    .......   XXXXXXXXX   .    ",
"......  XXXXXX      ...    XXXXX     ......  XXXX        ...    XXXXX    .......  XXXXXX      ...   ",
"......  XXXXX X      .     XXXXX     ......   XXX         .     XXXXX     ......  XXXXXXX       .   ",
"       X X XX            XXX X                                   X                 X X             X",
"        X X             XXXX                                    X                 X X X            X",
"              ......                     ..   ..   .........  ..       XXX              ......      ",
"X            .......             X X     ..   ..  .........   ..      XXXX X            .......     ",
"XXXX   . ..    .......                     ...................  ..     XXXXXXX   . ..    ........   ",
"XXXX  .....       .....                     ..................   ..      XXXXX   ....       .....   ",
"XXXX   ....       .....                    ...................  ..       XXXXX   ....       . ...   ",
"             ...          XXXXXX       ..     ..................                       ...          ",
"             ...         X XXXXX       ..     ...................                       ..          ",
"..      XXXXXX        XXXXXXXXX   .....  .......................       .....      XXXXXX        XXXX",
"..     XXXXXXX       XXXXXXX       ....  ........................       ....      XXXXXX       X XXX",
"..  XXXXXXX            XXXX   .   .....  .......................    .  .....  XXXXXXX            XXX",
"..  XXXXX  ...                ..  .....  ....................      ..  .....  XXXXXX ...            ",
".   XXXXX  ...           X     .  .....  ...................  X    ..  .....  XXXXX  ....           ",
"     X     .....         XXX             .................   XXXX              X     .....         X",
"          ......         XXXX            ...............    X XXXX                   .....         X",
"       .......        XXXXX          X ..  ............    X XXX          X      ........       XXXX",
"X     ........      X XXXX        X X  ..  ......    ..   X            X X       .......        XXXX",
"  . ...........     XXXX           X   ............ .    XXX  X         X    ............     XXXX  ",
"  ..............  X XXX         X X    ..............    XXX         X X    ..............    XXX   ",
"  .............     XXX   .            .............    XXXX   .            . ...........    XXXX   ",
"      ........          ...   ..          .........           ..   ..           ........           .",
"      .......            ...  ..           ........           ...  ..            ......            .",
"....     . .   XXXXXX                ....   .....      XXX                ....    . ..   XXXXXX     ",
".....         XXXXXXX X              .....           XXXXX X   X X        .....          XXXXXXX    ",
"....         XXXXXXX        ....   ......         XXXXXXX         ...   ......         XXXXXXX      ",
"....       X XXXXXX        .....  .......        XXXXXXX        .....  ........       XXXXXXXX      ",
"...          XXXXX X         ...   ......   . .    XXXX     X    ....    ... .   . .    XXXXX    X  ",
" X         X                          X X  .......          XXX              X   ......          XXX",
" X X        X                        X X    ......         XXXX           X X   ........        XXXX",
"    XXX           .........                ....            XXX                  ....            XXXX",
"  XXXXXX          .........                ...       X   X XXX                  ...       X   X XXX ",
"    XXXXX       ..........         ......   .     XXXXX     X           ......   .     XXXXX     X  ",
"      XXXX     ..........     X   .......       X XXXXX            X   .......         XXXXX        ",
"     XXXX       .........   XXXX   .......     X XXXXXX          X XX   .......     XXXXXXXX        ",
"..             ........    XXXXX     ......  XXXXXXX     ...    XXXXX     ......  XXXXXX      ...   ",
".               .......    XXXXX     ......  XXXXXX       ..    XXXXX     ......  XXXXXXX      ..   ",
"                  . .    XXXXX         .    X XXXX            XXXXX         .     X XXX            X",
"                         XXX                 X                XXX                X X               X",
"             XXX         XX       XXX               .....      X       XXX               .....      ",
" X     X    XXXX                X XXX X           .......            X XXX X            ......      ",
"X X          XXXXX                XXXXX X     .     .......            XXXXX X    . .   ........    ",
"XXXX           XXXX         X X     XXXXX  ......      .....             XXXXXX  ....       .....   ",
"XXXX           XXX                X XXXXX   ....        ....             XXXXX   ....        ....   ",
" X                     ......          X          ...           XXXXX      X        .  ...          ",
"                       .......                    ...          XXXXXX                  ...          ",
"       .......       .......       ....       XXXX         XXXXXXXXX    ....       XXXX          XXX",
"      ..........    .......       .....      XXXXXX        XXXXXX      .....      XXXXXXX       XXXX",
"      .........      ......       .....   XXXXXXX  X       XXXXX X     .....   XXXXXXX         X XXX",
"X   .........     X           ..  .....  XXXXXX ...                ..  .....  XXXXXX ...            ",
"    .........                 ..  ....   XXXXX  ...                ..  .....  XXXXX  ...            ",
"        .. .    X        XXX              X     .....         XXX              X     .....         X",
"                 X       XXX X                  .....         XXX X                  .....         X",
"                      XXXXX                  .......       XXXXX                 . .......       XXX",
" X                    XXXX         X X     ........        XXXX         X X      .......       XXXXX",
"        X X         XXXXX          X     ...........     XXXXX          X      .........      XXXXX ",
"     XXXXXXX       XXXX        X X     ..............    XXX          X     ..............    XXX   ",
"    XXXXXXXX        XXX            X   .............     XXX            X   ..............    XXX   ",
"   XXXXXXX                  X             .........           ...  ..          .........           .",
"  X XXXXXX                  X              ........           ..   ..           .......            .",
".   X XX       XXXXXX                ....    ....   XXXXXX    . .         ....    ....    XXXXX     ",
"..           X XXXXXX                ....           XXXXXX                ....          XXXXXXXX    ",
".            XXXXXXX         ..    .......        XXXXXXXX        ...   .......         XXXXXXX     ",
"           X XXXXXXX       .....  .......        XXXXXXX        .....  .......        XXXXXXX      ."
};
