/* XPM */
static char *c29e3a8d706046b1d0f20cd1b650c99bCilPQ67dgXEEDr63[] = {
/* columns rows colors chars-per-pixel */
"100 100 13 1 ",
"  c #5A698A",
". c #303E60",
"X c #334062",
"o c #2C3A5B",
"O c #576687",
"+ c #8D9DB7",
"@ c #5D6C8C",
"# c #8898B2",
"$ c #8596B0",
"% c #4D5B7B",
"& c #6A7998",
"* c #3E4D6E",
"= c #7988A6",
/* pixels */
"################################+%oXX.......o%+#####################################################",
"###############################$+%oX........o%+#####################################################",
"###############################$+%o........Xo%+#####################################################",
"$$$$$$$$$$$$$$$$$$$$$$$$$$$$$$$$+%.XXX...XXX.%+$$$$$$$$$$$$$$$$$$$$$$$$$$$$###$$$$$$$$$$$$$$$$$$$$$$",
"@@@@@@@@@@@@@@@@@@@@@@@@@@@@@@@@ =$$#%oXo* OO @ @@@@@@@@@@@@@@@@@@@@@@@@@@@$##$XXXX%@@@@@@@@@@@@@@@@",
"                                O=+#+%oXo*@                               @$##$Xo.o%@               ",
"                                O=+$+%oXo*@                               @$##$X.X.%@               ",
"                     OOOOOOOO   O=+$+%oXo*@                               @#++$Xo.o%@               ",
"                   O&========   O=+$+%oXo*@                                &&&&%%%%O                ",
"                   O&+#+#+#+#@  O=+$+%oXo*@                                OOOO@@@@                 ",
"                   O&#$###$$$@  O=+$+%oXo*@                                                         ",
"                   O&+#+++++#@O O=+#+%oXo*@                                                         ",
"                    @&&&&&&&&   O&&&&*oXo*@                                                         ",
"                     OOOOOOOO    OOO *oXo*@                                                         ",
"                                  @ @*oXo*@                                                         ",
"        OOOO @@@@                OOO *oXo*@                                    OOOO @@@             ",
"        &&&&O%%%%@               &&&&*oXo*@                                    &&&&O%%%O            ",
"       O=+#+%o.o*@              O=+#+%oXo*@                                  O@#+#+%o.o%@           ",
"       O=+$+%oX.*@              O=#$+%oXo*@                                   @$##+%oX.%@           ",
"       O=+#+%o.o*@              O=+#+%oXo*@                                  O@$##+%oXo%@           ",
"       O&===O***%               O&===%oXo*@                                   @$##+%oXo%@           ",
"         OOO @@@                  OO *.Xo*@                                  O@$#$+%oXo%@           ",
"                                    @*oXo*@                                   @$#$+%oXo%@           ",
"                                    @*oXo*@                                  O@$##+%oXo%@           ",
"                                 OOO *.X.* OO     OOOO                        @$$$+%.X.%@           ",
"                                @*.XXX..XXXX.*@  OXXXXO                         @@@ OOO             ",
"                                @*o.........o*@  OX..XO                       O  O                  ",
"                                @*oX.......Xo*@ @ X..X @                                            ",
"OOOOOOOOOOOOOOOOOOOOOOOOOOOOOOOO *oX.......Xo* O OX..XOOOOOOOOOOOOOOOOOOOOOOOOOOOOOOOOOOOOOOOOOOOOOO",
"XXXXXXXXXXXXXXXXXXXXXXXXXXXXXXXXXX...........XXXXX....XXXXXXXXXXXXXXXXXXXXXXXXXXXXXXXXXXXXXXXXXXXXXX",
"....................................................................................................",
"XXXXXXXXXXXXXXXXXXXXXXXXXXXXXXXXXXXXXXXXXXXXXXXXXXXXXXXXXX.............XXXXXXXXXXXXXXXXXXXXXXXXXXXXX",
"oooooooooooooooooooooooooooooooooooooooooooooooooooooooooo....X........ooooooooooooooooooooooooooooo",
"&&&&&&&&&&&&&&&&&&&&&&&&&&&&&&&&&&&&&&&&&&&&&&&&&&&&&&&&&&*oX.......Xo*&&&&&&&&&&&&&&&&&&&&&&&&&&&&&",
"++++++++++++++++++++++++++++++++++++++++++++++++++++++++++OoX.......Xo%+++++++++++++++++++++++++++++",
"$$$$$$$$$$$$$$$$$$$$$$$$$$#$#$$$$$$$$$$$$$$$$$$$$$$$$$$$$+%oXX.....XXo%+$##$$$$$$$$$$$$$$$$$$$$$$$$$",
"+++++++++++++++++++#+++++####++++#+++++++++++++++++++++#++%ooo.....o.o%+#+#++++++++++++++++++++++++#",
"&&&&&&&&&&&&&&&&&&&&&&&&&$###&&&&&&&&&&&&&&&&&&&&&&&&&&&&&&&&&*oX.*%%%O&&&&&&&&&&&&&&&&&&&&&&&&&&&&&",
"OOOOOOOOOOOOOOOOOOOOOOOO $##$ OOOOOOOOOOOOOOOOOOOOOOOOOOOO=+++%oXo*@@@ OOOOOOOOOOOOOOOOOOOOOOOOOOOOO",
"                        @$##$@                          @ =#$+%oXo*@                                ",
"                        @#++#@                           O=+$+%oXo*@                   OOOOO        ",
"                         ====@                          @O=+$+%oXo*@                   @&&&&        ",
"                         OOOO                            O=+$+%oXo*@                  O=+#+=O       ",
"                                                        @O=+$+%oXo*@                  O=#$#=O       ",
"                                                         O=+$+%oXo*@                  O=+#+=O       ",
"                                                        @O=+$+%oXo*@                  @&===&O       ",
"                                                         O=+$+%oXo*@                    OOO   O     ",
"                                                        @O=+$+%oXo*@                     @  O       ",
"                                                         O=+$+%oXo*@                                ",
"                                                        @O=+$+%oXo*@                                ",
"                                                         O=+$+%oXo*@                                ",
"                                                        @O=+$+%oXo*@                                ",
"                                                         O=+$+%oXo*@                                ",
"         @ @ OOOOOOOO                                   @O=+$+%oXo*@       @@@@                     ",
"       O=#$#%oXXXXX.*@                                   O=+$+%oXo*@      @$$$$@                    ",
"       O=+$+%o.....o*@                                  @O=+$+%oXo*@      @##+#@                    ",
"       O=#$+%oX...Xo*@                                   O=#$+%oXo*@      @$##$@                    ",
"       O=+#+%o.oo.oo*@               @@@@@@@@@           O=+++%oXo*@@@@   @#++#@                    ",
"       O&&&&O%%%%%%%%@              @%*******%@           O%%%*...X***%    &&&&                     ",
"        OOOO @@@@@@@@               @*o.ooo.o*@          @*ooo.....o.o*@   OOOO                     ",
"                                     *.XXX.X.*@           *.XX.....XX.*@                            ",
"@@@@@@@@@@@@@@@@@@@@@@@@@@@@@@@@@@@@@*oX...Xo*@@@@@@@@@@@@*oX.......Xo*@@@@@@@@@@@@@@@@@@@@@@@@@@@@@",
"*************************************X.......X************X...........X*****************************",
"ooooooooooooooooooooooooooooooooooooo.........oooooooooooo.............o.ooooooooooooooooooooooooooo",
"XXXXXXXXXXXXXXXXXXXXXX.X.X.X.X.X.XXXXXXXXXXXXXXXXXXXXXXXXXXXXXXXXXXXXXXXXXXXXXXXXXXXXXXXXXXXXXXXXXXX",
"ooooooooooooooooooooo............ooooooooooooooooooooooooooooooooooooooooooooooooooooooooooooooooooo",
"%%%%%%%%%%%%%%%%%%%%*............*%%%%%%%%%%%%%%%%%%%%%%%%%%%%%%%%%%%%%%%%%%%%%%%%%%%%%%%%%%%%%%%%%%",
"++++++++++++++++++++&oX.........o&++++++++++++++++++++++++++++++++++++++++++++++++++++++++++++++++++",
"$$$$$$$$$$$$$$$$$$$+&oXXX....X.Xo&+$$$$$$$$$$$$$$#$$#$$$$$$#$#$$$$$$$$$$$$#$$#$$#$$#$$#$$#$$#$$#$$$$",
"#+#+#+#+#+#+#+#+++#+&oooo....o..o&+#++#++#+#+#++#+#+#++#++####+++++#+#+#++#+#+#+#+#+#+#+#+#+#+#+#+#+",
"====================&%%%%X...****@========================$###=&&&&=================================",
"OOOOOOOOOOOOOOOOOOOO&+++#X..X @@@ OOOOOOOOOOOOOOOOOOOOOOOO=+$+%ooo* OOOOOOOOOOOOOOOOOOOOOOOOOOOOOOOO",
" @ @ @ @ @ @ @ @   O&#$#$X..XO        @ @ @ @ @ @ @ @ @ @ =+$+%oX.*@  @ @ @ @ @ @ @ @ @ @ @ @ @ @ @ ",
"                   O&+$#$X..XO                           O=+$+%oXo*@                                ",
"                   O&+$#$X..XO                           O=#$+%oX.*@                                ",
"                   O&+$#$X..XO                            @@@@ OOOO                     O           ",
"                  OO&+##$X..XO                                                        O             ",
"                O  O&+#+$X..XO                                                      O O             ",
"    @@@@ O         O&#$#$X..XO                                                 @@@@@@@@OOOOO        ",
"    $$$#&O       O   @@@ X..XO                                                @$$$$$$$+%oX.*@       ",
"   @###+&O           O  OX..XO                                                @$#####$+%oXo*@       ",
"   @$#$#&O              OX..XO                                               O@$#####$+%oX.*@       ",
"   @#+#+&O              OX..XO                                                @#+++++#+%o.o*@       ",
"    &&&&@O              OX..XO                                               O &&&&&&&&O%%%%        ",
"    OOOOO               OX..XO                                                 OOOOOOOO @@@@        ",
"    O                   OX..XO                                                O                     ",
"                        OX..XO                                                                      ",
"                        OX..XO                                                                      ",
"                        OX..XO                                                                      ",
"                        OX..XO                                                                      ",
"        @@@@         @@@ X..X @@@                                      @@@@                         ",
"       @%%%%O       O%%%%X..X%%%%O                                    O%%%%                         ",
"       @*o.o%@     @%o.oo.X..oo.o%@                                  @%o.o.O                        ",
"       @*.X.%@     @%.XX.........%@                                   %.X.XO                        ",
"@@@@@@@@*oXo%@@@@@@@%oX........Xo%@@@@@@@@@@@@@@@@@@@@@@@@@@@@@@@@@@@@%oX.X @@@@@@@@@@@@@@@@@@@@@@@@",
"%%%%%%%%*...*%%%%%%%*............*%%%%%%%%%%%%%%%%%%%%%%%%%%%%%%%%%%%%*.X.X%%%%%%%%%%%%%%%%%%%%%%%%%",
"oooooooo......oooo.................o.o.o.o.o.o.o.o.o.o.o.o.o.o.o.o.o.......ooooooooooooooooooooooooo",
"XXXXXXXX.....XXXXXXX..............XXXXXX.X.X.X.X.X.X.X.X.X.X.X.X.XXX.X.....XXXXXXXXXXXXXXXXXXXXXXXXX",
"....................................................................................................",
"...................................................................................................."
};
